# xmcd
#
# Track frame offsets:
#	150
#	15932
#	28148
#	44637
#	60785
#	79061
#	92629
#	108470
#	125386
#	140619
#	154218
#	174510
#	190090
#	207898
#
# Disc length: 2979 seconds
#
# Revision: 2
# Processed by: cddbd v1.5.1PL2 Copyright (c) Steve Scherf et al.
# Submitted via: EasyCDDAExtractor 9.1.1.5
#
DISCID=b20ba10e
DTITLE=compil
DYEAR=1900
DGENRE=Country
TTITLE0=houose with no curtains
TTITLE1=nobody but me
TTITLE2=bomshel stomp
TTITLE3=you need a man
TTITLE4=the worlds
TTITLE5=the world i love you
TTITLE6=your man
TTITLE7=high class lady
TTITLE8=i can't be bothered
TTITLE9=my kind
TTITLE10=oh susana
TTITLE11=irish stew
TTITLE12=shoe
TTITLE13=it's heartache
EXTD=
EXTT0=
EXTT1=
EXTT2=
EXTT3=
EXTT4=
EXTT5=
EXTT6=
EXTT7=
EXTT8=
EXTT9=
EXTT10=
EXTT11=
EXTT12=
EXTT13=
PLAYORDER=
